<?xml version="1.0" encoding="utf-8" standalone="no"?>
<!DOCTYPE svg PUBLIC "-//W3C//DTD SVG 1.1//EN"
  "http://www.w3.org/Graphics/SVG/1.1/DTD/svg11.dtd">
<svg xmlns:xlink="http://www.w3.org/1999/xlink" width="687.577059pt" height="607.009491pt" viewBox="0 0 687.577059 607.009491" xmlns="http://www.w3.org/2000/svg" version="1.1">
 <metadata>
  <rdf:RDF xmlns:dc="http://purl.org/dc/elements/1.1/" xmlns:cc="http://creativecommons.org/ns#" xmlns:rdf="http://www.w3.org/1999/02/22-rdf-syntax-ns#">
   <cc:Work>
    <dc:type rdf:resource="http://purl.org/dc/dcmitype/StillImage"/>
    <dc:date>2025-11-11T11:46:24.091009</dc:date>
    <dc:format>image/svg+xml</dc:format>
    <dc:creator>
     <cc:Agent>
      <dc:title>Matplotlib v3.10.7, https://matplotlib.org/</dc:title>
     </cc:Agent>
    </dc:creator>
   </cc:Work>
  </rdf:RDF>
 </metadata>
 <defs>
  <style type="text/css">*{stroke-linejoin: round; stroke-linecap: butt}</style>
 </defs>
 <g id="figure_1">
  <g id="patch_1">
   <path d="M 0 607.009491 
L 687.577059 607.009491 
L 687.577059 0 
L 0 0 
z
" style="fill: #ffffff"/>
  </g>
  <g id="axes_1">
   <g id="patch_2">
    <path d="M 52.079375 509.51726 
L 645.324743 509.51726 
L 645.324743 41.5675 
L 52.079375 41.5675 
z
" style="fill: #ffffff"/>
   </g>
   <g id="matplotlib.axis_1">
    <g id="xtick_1">
     <g id="line2d_1">
      <path d="M 52.079375 509.51726 
L 52.079375 41.5675 
" clip-path="url(#p136e154c29)" style="fill: none; stroke: #b0b0b0; stroke-opacity: 0.3; stroke-width: 0.8; stroke-linecap: square"/>
     </g>
     <g id="line2d_2">
      <defs>
       <path id="me89522f9aa" d="M 0 0 
L 0 3.5 
" style="stroke: #000000; stroke-width: 0.8"/>
      </defs>
      <g>
       <use xlink:href="#me89522f9aa" x="52.079375" y="509.51726" style="stroke: #000000; stroke-width: 0.8"/>
      </g>
     </g>
     <g id="text_1">
      <!-- −1 -->
      <g transform="translate(44.708281 524.115697) scale(0.1 -0.1)">
       <defs>
        <path id="DejaVuSans-2212" d="M 678 2272 
L 4684 2272 
L 4684 1741 
L 678 1741 
L 678 2272 
z
" transform="scale(0.015625)"/>
        <path id="DejaVuSans-31" d="M 794 531 
L 1825 531 
L 1825 4091 
L 703 3866 
L 703 4441 
L 1819 4666 
L 2450 4666 
L 2450 531 
L 3481 531 
L 3481 0 
L 794 0 
L 794 531 
z
" transform="scale(0.015625)"/>
       </defs>
       <use xlink:href="#DejaVuSans-2212"/>
       <use xlink:href="#DejaVuSans-31" transform="translate(83.789062 0)"/>
      </g>
     </g>
    </g>
    <g id="xtick_2">
     <g id="line2d_3">
      <path d="M 150.953603 509.51726 
L 150.953603 41.5675 
" clip-path="url(#p136e154c29)" style="fill: none; stroke: #b0b0b0; stroke-opacity: 0.3; stroke-width: 0.8; stroke-linecap: square"/>
     </g>
     <g id="line2d_4">
      <g>
       <use xlink:href="#me89522f9aa" x="150.953603" y="509.51726" style="stroke: #000000; stroke-width: 0.8"/>
      </g>
     </g>
     <g id="text_2">
      <!-- 0 -->
      <g transform="translate(147.772353 524.115697) scale(0.1 -0.1)">
       <defs>
        <path id="DejaVuSans-30" d="M 2034 4250 
Q 1547 4250 1301 3770 
Q 1056 3291 1056 2328 
Q 1056 1369 1301 889 
Q 1547 409 2034 409 
Q 2525 409 2770 889 
Q 3016 1369 3016 2328 
Q 3016 3291 2770 3770 
Q 2525 4250 2034 4250 
z
M 2034 4750 
Q 2819 4750 3233 4129 
Q 3647 3509 3647 2328 
Q 3647 1150 3233 529 
Q 2819 -91 2034 -91 
Q 1250 -91 836 529 
Q 422 1150 422 2328 
Q 422 3509 836 4129 
Q 1250 4750 2034 4750 
z
" transform="scale(0.015625)"/>
       </defs>
       <use xlink:href="#DejaVuSans-30"/>
      </g>
     </g>
    </g>
    <g id="xtick_3">
     <g id="line2d_5">
      <path d="M 249.827831 509.51726 
L 249.827831 41.5675 
" clip-path="url(#p136e154c29)" style="fill: none; stroke: #b0b0b0; stroke-opacity: 0.3; stroke-width: 0.8; stroke-linecap: square"/>
     </g>
     <g id="line2d_6">
      <g>
       <use xlink:href="#me89522f9aa" x="249.827831" y="509.51726" style="stroke: #000000; stroke-width: 0.8"/>
      </g>
     </g>
     <g id="text_3">
      <!-- 1 -->
      <g transform="translate(246.646581 524.115697) scale(0.1 -0.1)">
       <use xlink:href="#DejaVuSans-31"/>
      </g>
     </g>
    </g>
    <g id="xtick_4">
     <g id="line2d_7">
      <path d="M 348.702059 509.51726 
L 348.702059 41.5675 
" clip-path="url(#p136e154c29)" style="fill: none; stroke: #b0b0b0; stroke-opacity: 0.3; stroke-width: 0.8; stroke-linecap: square"/>
     </g>
     <g id="line2d_8">
      <g>
       <use xlink:href="#me89522f9aa" x="348.702059" y="509.51726" style="stroke: #000000; stroke-width: 0.8"/>
      </g>
     </g>
     <g id="text_4">
      <!-- 2 -->
      <g transform="translate(345.520809 524.115697) scale(0.1 -0.1)">
       <defs>
        <path id="DejaVuSans-32" d="M 1228 531 
L 3431 531 
L 3431 0 
L 469 0 
L 469 531 
Q 828 903 1448 1529 
Q 2069 2156 2228 2338 
Q 2531 2678 2651 2914 
Q 2772 3150 2772 3378 
Q 2772 3750 2511 3984 
Q 2250 4219 1831 4219 
Q 1534 4219 1204 4116 
Q 875 4013 500 3803 
L 500 4441 
Q 881 4594 1212 4672 
Q 1544 4750 1819 4750 
Q 2544 4750 2975 4387 
Q 3406 4025 3406 3419 
Q 3406 3131 3298 2873 
Q 3191 2616 2906 2266 
Q 2828 2175 2409 1742 
Q 1991 1309 1228 531 
z
" transform="scale(0.015625)"/>
       </defs>
       <use xlink:href="#DejaVuSans-32"/>
      </g>
     </g>
    </g>
    <g id="xtick_5">
     <g id="line2d_9">
      <path d="M 447.576287 509.51726 
L 447.576287 41.5675 
" clip-path="url(#p136e154c29)" style="fill: none; stroke: #b0b0b0; stroke-opacity: 0.3; stroke-width: 0.8; stroke-linecap: square"/>
     </g>
     <g id="line2d_10">
      <g>
       <use xlink:href="#me89522f9aa" x="447.576287" y="509.51726" style="stroke: #000000; stroke-width: 0.8"/>
      </g>
     </g>
     <g id="text_5">
      <!-- 3 -->
      <g transform="translate(444.395037 524.115697) scale(0.1 -0.1)">
       <defs>
        <path id="DejaVuSans-33" d="M 2597 2516 
Q 3050 2419 3304 2112 
Q 3559 1806 3559 1356 
Q 3559 666 3084 287 
Q 2609 -91 1734 -91 
Q 1441 -91 1130 -33 
Q 819 25 488 141 
L 488 750 
Q 750 597 1062 519 
Q 1375 441 1716 441 
Q 2309 441 2620 675 
Q 2931 909 2931 1356 
Q 2931 1769 2642 2001 
Q 2353 2234 1838 2234 
L 1294 2234 
L 1294 2753 
L 1863 2753 
Q 2328 2753 2575 2939 
Q 2822 3125 2822 3475 
Q 2822 3834 2567 4026 
Q 2313 4219 1838 4219 
Q 1578 4219 1281 4162 
Q 984 4106 628 3988 
L 628 4550 
Q 988 4650 1302 4700 
Q 1616 4750 1894 4750 
Q 2613 4750 3031 4423 
Q 3450 4097 3450 3541 
Q 3450 3153 3228 2886 
Q 3006 2619 2597 2516 
z
" transform="scale(0.015625)"/>
       </defs>
       <use xlink:href="#DejaVuSans-33"/>
      </g>
     </g>
    </g>
    <g id="xtick_6">
     <g id="line2d_11">
      <path d="M 546.450515 509.51726 
L 546.450515 41.5675 
" clip-path="url(#p136e154c29)" style="fill: none; stroke: #b0b0b0; stroke-opacity: 0.3; stroke-width: 0.8; stroke-linecap: square"/>
     </g>
     <g id="line2d_12">
      <g>
       <use xlink:href="#me89522f9aa" x="546.450515" y="509.51726" style="stroke: #000000; stroke-width: 0.8"/>
      </g>
     </g>
     <g id="text_6">
      <!-- 4 -->
      <g transform="translate(543.269265 524.115697) scale(0.1 -0.1)">
       <defs>
        <path id="DejaVuSans-34" d="M 2419 4116 
L 825 1625 
L 2419 1625 
L 2419 4116 
z
M 2253 4666 
L 3047 4666 
L 3047 1625 
L 3713 1625 
L 3713 1100 
L 3047 1100 
L 3047 0 
L 2419 0 
L 2419 1100 
L 313 1100 
L 313 1709 
L 2253 4666 
z
" transform="scale(0.015625)"/>
       </defs>
       <use xlink:href="#DejaVuSans-34"/>
      </g>
     </g>
    </g>
    <g id="xtick_7">
     <g id="line2d_13">
      <path d="M 645.324743 509.51726 
L 645.324743 41.5675 
" clip-path="url(#p136e154c29)" style="fill: none; stroke: #b0b0b0; stroke-opacity: 0.3; stroke-width: 0.8; stroke-linecap: square"/>
     </g>
     <g id="line2d_14">
      <g>
       <use xlink:href="#me89522f9aa" x="645.324743" y="509.51726" style="stroke: #000000; stroke-width: 0.8"/>
      </g>
     </g>
     <g id="text_7">
      <!-- 5 -->
      <g transform="translate(642.143493 524.115697) scale(0.1 -0.1)">
       <defs>
        <path id="DejaVuSans-35" d="M 691 4666 
L 3169 4666 
L 3169 4134 
L 1269 4134 
L 1269 2991 
Q 1406 3038 1543 3061 
Q 1681 3084 1819 3084 
Q 2600 3084 3056 2656 
Q 3513 2228 3513 1497 
Q 3513 744 3044 326 
Q 2575 -91 1722 -91 
Q 1428 -91 1123 -41 
Q 819 9 494 109 
L 494 744 
Q 775 591 1075 516 
Q 1375 441 1709 441 
Q 2250 441 2565 725 
Q 2881 1009 2881 1497 
Q 2881 1984 2565 2268 
Q 2250 2553 1709 2553 
Q 1456 2553 1204 2497 
Q 953 2441 691 2322 
L 691 4666 
z
" transform="scale(0.015625)"/>
       </defs>
       <use xlink:href="#DejaVuSans-35"/>
      </g>
     </g>
    </g>
    <g id="text_8">
     <!-- x -->
     <g transform="translate(345.150809 539.31351) scale(0.12 -0.12)">
      <defs>
       <path id="DejaVuSans-78" d="M 3513 3500 
L 2247 1797 
L 3578 0 
L 2900 0 
L 1881 1375 
L 863 0 
L 184 0 
L 1544 1831 
L 300 3500 
L 978 3500 
L 1906 2253 
L 2834 3500 
L 3513 3500 
z
" transform="scale(0.015625)"/>
      </defs>
      <use xlink:href="#DejaVuSans-78"/>
     </g>
    </g>
   </g>
   <g id="matplotlib.axis_2">
    <g id="ytick_1">
     <g id="line2d_15">
      <path d="M 52.079375 487.233938 
L 645.324743 487.233938 
" clip-path="url(#p136e154c29)" style="fill: none; stroke: #b0b0b0; stroke-opacity: 0.3; stroke-width: 0.8; stroke-linecap: square"/>
     </g>
     <g id="line2d_16">
      <defs>
       <path id="m11b0559fbb" d="M 0 0 
L -3.5 0 
" style="stroke: #000000; stroke-width: 0.8"/>
      </defs>
      <g>
       <use xlink:href="#m11b0559fbb" x="52.079375" y="487.233938" style="stroke: #000000; stroke-width: 0.8"/>
      </g>
     </g>
     <g id="text_9">
      <!-- 0.0 -->
      <g transform="translate(29.17625 491.033157) scale(0.1 -0.1)">
       <defs>
        <path id="DejaVuSans-2e" d="M 684 794 
L 1344 794 
L 1344 0 
L 684 0 
L 684 794 
z
" transform="scale(0.015625)"/>
       </defs>
       <use xlink:href="#DejaVuSans-30"/>
       <use xlink:href="#DejaVuSans-2e" transform="translate(63.623047 0)"/>
       <use xlink:href="#DejaVuSans-30" transform="translate(95.410156 0)"/>
      </g>
     </g>
    </g>
    <g id="ytick_2">
     <g id="line2d_17">
      <path d="M 52.079375 431.525633 
L 645.324743 431.525633 
" clip-path="url(#p136e154c29)" style="fill: none; stroke: #b0b0b0; stroke-opacity: 0.3; stroke-width: 0.8; stroke-linecap: square"/>
     </g>
     <g id="line2d_18">
      <g>
       <use xlink:href="#m11b0559fbb" x="52.079375" y="431.525633" style="stroke: #000000; stroke-width: 0.8"/>
      </g>
     </g>
     <g id="text_10">
      <!-- 2.5 -->
      <g transform="translate(29.17625 435.324852) scale(0.1 -0.1)">
       <use xlink:href="#DejaVuSans-32"/>
       <use xlink:href="#DejaVuSans-2e" transform="translate(63.623047 0)"/>
       <use xlink:href="#DejaVuSans-35" transform="translate(95.410156 0)"/>
      </g>
     </g>
    </g>
    <g id="ytick_3">
     <g id="line2d_19">
      <path d="M 52.079375 375.817329 
L 645.324743 375.817329 
" clip-path="url(#p136e154c29)" style="fill: none; stroke: #b0b0b0; stroke-opacity: 0.3; stroke-width: 0.8; stroke-linecap: square"/>
     </g>
     <g id="line2d_20">
      <g>
       <use xlink:href="#m11b0559fbb" x="52.079375" y="375.817329" style="stroke: #000000; stroke-width: 0.8"/>
      </g>
     </g>
     <g id="text_11">
      <!-- 5.0 -->
      <g transform="translate(29.17625 379.616547) scale(0.1 -0.1)">
       <use xlink:href="#DejaVuSans-35"/>
       <use xlink:href="#DejaVuSans-2e" transform="translate(63.623047 0)"/>
       <use xlink:href="#DejaVuSans-30" transform="translate(95.410156 0)"/>
      </g>
     </g>
    </g>
    <g id="ytick_4">
     <g id="line2d_21">
      <path d="M 52.079375 320.109024 
L 645.324743 320.109024 
" clip-path="url(#p136e154c29)" style="fill: none; stroke: #b0b0b0; stroke-opacity: 0.3; stroke-width: 0.8; stroke-linecap: square"/>
     </g>
     <g id="line2d_22">
      <g>
       <use xlink:href="#m11b0559fbb" x="52.079375" y="320.109024" style="stroke: #000000; stroke-width: 0.8"/>
      </g>
     </g>
     <g id="text_12">
      <!-- 7.5 -->
      <g transform="translate(29.17625 323.908243) scale(0.1 -0.1)">
       <defs>
        <path id="DejaVuSans-37" d="M 525 4666 
L 3525 4666 
L 3525 4397 
L 1831 0 
L 1172 0 
L 2766 4134 
L 525 4134 
L 525 4666 
z
" transform="scale(0.015625)"/>
       </defs>
       <use xlink:href="#DejaVuSans-37"/>
       <use xlink:href="#DejaVuSans-2e" transform="translate(63.623047 0)"/>
       <use xlink:href="#DejaVuSans-35" transform="translate(95.410156 0)"/>
      </g>
     </g>
    </g>
    <g id="ytick_5">
     <g id="line2d_23">
      <path d="M 52.079375 264.400719 
L 645.324743 264.400719 
" clip-path="url(#p136e154c29)" style="fill: none; stroke: #b0b0b0; stroke-opacity: 0.3; stroke-width: 0.8; stroke-linecap: square"/>
     </g>
     <g id="line2d_24">
      <g>
       <use xlink:href="#m11b0559fbb" x="52.079375" y="264.400719" style="stroke: #000000; stroke-width: 0.8"/>
      </g>
     </g>
     <g id="text_13">
      <!-- 10.0 -->
      <g transform="translate(22.81375 268.199938) scale(0.1 -0.1)">
       <use xlink:href="#DejaVuSans-31"/>
       <use xlink:href="#DejaVuSans-30" transform="translate(63.623047 0)"/>
       <use xlink:href="#DejaVuSans-2e" transform="translate(127.246094 0)"/>
       <use xlink:href="#DejaVuSans-30" transform="translate(159.033203 0)"/>
      </g>
     </g>
    </g>
    <g id="ytick_6">
     <g id="line2d_25">
      <path d="M 52.079375 208.692414 
L 645.324743 208.692414 
" clip-path="url(#p136e154c29)" style="fill: none; stroke: #b0b0b0; stroke-opacity: 0.3; stroke-width: 0.8; stroke-linecap: square"/>
     </g>
     <g id="line2d_26">
      <g>
       <use xlink:href="#m11b0559fbb" x="52.079375" y="208.692414" style="stroke: #000000; stroke-width: 0.8"/>
      </g>
     </g>
     <g id="text_14">
      <!-- 12.5 -->
      <g transform="translate(22.81375 212.491633) scale(0.1 -0.1)">
       <use xlink:href="#DejaVuSans-31"/>
       <use xlink:href="#DejaVuSans-32" transform="translate(63.623047 0)"/>
       <use xlink:href="#DejaVuSans-2e" transform="translate(127.246094 0)"/>
       <use xlink:href="#DejaVuSans-35" transform="translate(159.033203 0)"/>
      </g>
     </g>
    </g>
    <g id="ytick_7">
     <g id="line2d_27">
      <path d="M 52.079375 152.98411 
L 645.324743 152.98411 
" clip-path="url(#p136e154c29)" style="fill: none; stroke: #b0b0b0; stroke-opacity: 0.3; stroke-width: 0.8; stroke-linecap: square"/>
     </g>
     <g id="line2d_28">
      <g>
       <use xlink:href="#m11b0559fbb" x="52.079375" y="152.98411" style="stroke: #000000; stroke-width: 0.8"/>
      </g>
     </g>
     <g id="text_15">
      <!-- 15.0 -->
      <g transform="translate(22.81375 156.783328) scale(0.1 -0.1)">
       <use xlink:href="#DejaVuSans-31"/>
       <use xlink:href="#DejaVuSans-35" transform="translate(63.623047 0)"/>
       <use xlink:href="#DejaVuSans-2e" transform="translate(127.246094 0)"/>
       <use xlink:href="#DejaVuSans-30" transform="translate(159.033203 0)"/>
      </g>
     </g>
    </g>
    <g id="ytick_8">
     <g id="line2d_29">
      <path d="M 52.079375 97.275805 
L 645.324743 97.275805 
" clip-path="url(#p136e154c29)" style="fill: none; stroke: #b0b0b0; stroke-opacity: 0.3; stroke-width: 0.8; stroke-linecap: square"/>
     </g>
     <g id="line2d_30">
      <g>
       <use xlink:href="#m11b0559fbb" x="52.079375" y="97.275805" style="stroke: #000000; stroke-width: 0.8"/>
      </g>
     </g>
     <g id="text_16">
      <!-- 17.5 -->
      <g transform="translate(22.81375 101.075024) scale(0.1 -0.1)">
       <use xlink:href="#DejaVuSans-31"/>
       <use xlink:href="#DejaVuSans-37" transform="translate(63.623047 0)"/>
       <use xlink:href="#DejaVuSans-2e" transform="translate(127.246094 0)"/>
       <use xlink:href="#DejaVuSans-35" transform="translate(159.033203 0)"/>
      </g>
     </g>
    </g>
    <g id="ytick_9">
     <g id="line2d_31">
      <path d="M 52.079375 41.5675 
L 645.324743 41.5675 
" clip-path="url(#p136e154c29)" style="fill: none; stroke: #b0b0b0; stroke-opacity: 0.3; stroke-width: 0.8; stroke-linecap: square"/>
     </g>
     <g id="line2d_32">
      <g>
       <use xlink:href="#m11b0559fbb" x="52.079375" y="41.5675" style="stroke: #000000; stroke-width: 0.8"/>
      </g>
     </g>
     <g id="text_17">
      <!-- 20.0 -->
      <g transform="translate(22.81375 45.366719) scale(0.1 -0.1)">
       <use xlink:href="#DejaVuSans-32"/>
       <use xlink:href="#DejaVuSans-30" transform="translate(63.623047 0)"/>
       <use xlink:href="#DejaVuSans-2e" transform="translate(127.246094 0)"/>
       <use xlink:href="#DejaVuSans-30" transform="translate(159.033203 0)"/>
      </g>
     </g>
    </g>
    <g id="text_18">
     <!-- y -->
     <g transform="translate(16.318125 279.09363) rotate(-90) scale(0.12 -0.12)">
      <defs>
       <path id="DejaVuSans-79" d="M 2059 -325 
Q 1816 -950 1584 -1140 
Q 1353 -1331 966 -1331 
L 506 -1331 
L 506 -850 
L 844 -850 
Q 1081 -850 1212 -737 
Q 1344 -625 1503 -206 
L 1606 56 
L 191 3500 
L 800 3500 
L 1894 763 
L 2988 3500 
L 3597 3500 
L 2059 -325 
z
" transform="scale(0.015625)"/>
      </defs>
      <use xlink:href="#DejaVuSans-79"/>
     </g>
    </g>
   </g>
   <g id="line2d_33">
    <path d="M 52.079375 464.950616 
L 59.205445 468.046878 
L 66.331516 470.911644 
L 73.457586 473.544914 
L 80.583657 475.946688 
L 87.709727 478.116965 
L 94.835798 480.055746 
L 101.961868 481.763031 
L 109.087939 483.238819 
L 116.214009 484.483112 
L 123.34008 485.495908 
L 130.46615 486.277208 
L 137.592221 486.827011 
L 144.718291 487.145318 
L 151.844362 487.23213 
L 158.970432 487.087444 
L 166.096503 486.711263 
L 173.222573 486.103585 
L 180.348644 485.264411 
L 187.474714 484.193741 
L 194.600785 482.891575 
L 201.726855 481.357912 
L 208.852926 479.592754 
L 215.978996 477.596098 
L 223.105067 475.367947 
L 230.231137 472.9083 
L 237.357208 470.217156 
L 244.483278 467.294516 
L 251.609349 464.140379 
L 258.735419 460.754747 
L 265.86149 457.137618 
L 273.581399 452.957825 
L 281.301309 448.506345 
L 289.021219 443.783179 
L 296.741128 438.788326 
L 304.461038 433.521786 
L 312.180948 427.98356 
L 319.900858 422.173647 
L 327.620767 416.092048 
L 335.340677 409.738762 
L 343.060587 403.11379 
L 351.374336 395.675366 
L 359.688084 387.921849 
L 368.001833 379.85324 
L 376.315582 371.46954 
L 384.629331 362.770747 
L 392.94308 353.756862 
L 401.256829 344.427885 
L 409.570578 334.783816 
L 418.478166 324.101229 
L 427.385754 313.056929 
L 436.293342 301.650916 
L 445.20093 289.88319 
L 454.108518 277.753752 
L 463.016107 265.2626 
L 472.517534 251.540018 
L 482.018961 237.405886 
L 491.520388 222.860205 
L 501.021816 207.902976 
L 510.523243 192.534198 
L 520.02467 176.75387 
L 529.526098 160.561994 
L 539.621364 142.907191 
L 549.716631 124.787787 
L 559.811897 106.203783 
L 569.907164 87.155179 
L 580.00243 67.641975 
L 590.097697 47.664171 
L 600.786803 26.004803 
L 611.475908 3.82457 
L 613.768232 -1 
L 613.768232 -1 
" clip-path="url(#p136e154c29)" style="fill: none; stroke: #0000ff; stroke-width: 2; stroke-linecap: square"/>
   </g>
   <g id="line2d_34">
    <defs>
     <path id="m69eba36c11" d="M 0 4 
C 1.060812 4 2.078319 3.578535 2.828427 2.828427 
C 3.578535 2.078319 4 1.060812 4 0 
C 4 -1.060812 3.578535 -2.078319 2.828427 -2.828427 
C 2.078319 -3.578535 1.060812 -4 0 -4 
C -1.060812 -4 -2.078319 -3.578535 -2.828427 -2.828427 
C -3.578535 -2.078319 -4 -1.060812 -4 0 
C -4 1.060812 -3.578535 2.078319 -2.828427 2.828427 
C -2.078319 3.578535 -1.060812 4 0 4 
z
" style="stroke: #000000"/>
    </defs>
    <g clip-path="url(#p136e154c29)">
     <use xlink:href="#m69eba36c11" x="249.827831" y="464.950616" style="stroke: #000000"/>
    </g>
   </g>
   <g id="line2d_35">
    <defs>
     <path id="m0d4f87bab2" d="M 0 3 
C 0.795609 3 1.55874 2.683901 2.12132 2.12132 
C 2.683901 1.55874 3 0.795609 3 0 
C 3 -0.795609 2.683901 -1.55874 2.12132 -2.12132 
C 1.55874 -2.683901 0.795609 -3 0 -3 
C -0.795609 -3 -1.55874 -2.683901 -2.12132 -2.12132 
C -2.683901 -1.55874 -3 -0.795609 -3 0 
C -3 0.795609 -2.683901 1.55874 -2.12132 2.12132 
C -1.55874 2.683901 -0.795609 3 0 3 
z
" style="stroke: #ff0000"/>
    </defs>
    <g clip-path="url(#p136e154c29)">
     <use xlink:href="#m0d4f87bab2" x="447.576287" y="286.684041" style="fill: #ff0000; stroke: #ff0000"/>
    </g>
   </g>
   <g id="line2d_36">
    <path d="M 91.134753 608.009491 
L 117.995527 583.795 
L 183.911679 524.372808 
L 249.827831 464.950616 
L 315.743983 405.528424 
L 381.660135 346.106233 
L 447.576287 286.684041 
L 513.492439 227.261849 
L 579.408591 167.839657 
L 645.324743 108.417466 
" clip-path="url(#p136e154c29)" style="fill: none; stroke-dasharray: 5.55,2.4; stroke-dashoffset: 0; stroke: #ff0000; stroke-opacity: 0.7; stroke-width: 1.5"/>
   </g>
   <g id="line2d_37">
    <defs>
     <path id="ma227bae55c" d="M 0 3 
C 0.795609 3 1.55874 2.683901 2.12132 2.12132 
C 2.683901 1.55874 3 0.795609 3 0 
C 3 -0.795609 2.683901 -1.55874 2.12132 -2.12132 
C 1.55874 -2.683901 0.795609 -3 0 -3 
C -0.795609 -3 -1.55874 -2.683901 -2.12132 -2.12132 
C -2.683901 -1.55874 -3 -0.795609 -3 0 
C -3 0.795609 -2.683901 1.55874 -2.12132 2.12132 
C -1.55874 2.683901 -0.795609 3 0 3 
z
" style="stroke: #ffa500"/>
    </defs>
    <g clip-path="url(#p136e154c29)">
     <use xlink:href="#ma227bae55c" x="398.139173" y="347.963176" style="fill: #ffa500; stroke: #ffa500"/>
    </g>
   </g>
   <g id="line2d_38">
    <path d="M 68.464313 608.009491 
L 117.995527 568.939452 
L 183.911679 516.945034 
L 249.827831 464.950616 
L 315.743983 412.956198 
L 381.660135 360.961781 
L 447.576287 308.967363 
L 513.492439 256.972945 
L 579.408591 204.978527 
L 645.324743 152.98411 
" clip-path="url(#p136e154c29)" style="fill: none; stroke-dasharray: 5.55,2.4; stroke-dashoffset: 0; stroke: #ffa500; stroke-opacity: 0.7; stroke-width: 1.5"/>
   </g>
   <g id="line2d_39">
    <defs>
     <path id="ma36544c654" d="M 0 3 
C 0.795609 3 1.55874 2.683901 2.12132 2.12132 
C 2.683901 1.55874 3 0.795609 3 0 
C 3 -0.795609 2.683901 -1.55874 2.12132 -2.12132 
C 1.55874 -2.683901 0.795609 -3 0 -3 
C -0.795609 -3 -1.55874 -2.683901 -2.12132 -2.12132 
C -2.683901 -1.55874 -3 -0.795609 -3 0 
C -3 0.795609 -2.683901 1.55874 -2.12132 2.12132 
C -1.55874 2.683901 -0.795609 3 0 3 
z
" style="stroke: #008000"/>
    </defs>
    <g clip-path="url(#p136e154c29)">
     <use xlink:href="#ma36544c654" x="348.702059" y="398.10065" style="fill: #008000; stroke: #008000"/>
    </g>
   </g>
   <g id="line2d_40">
    <path d="M 52.079375 598.650548 
L 117.995527 554.083904 
L 183.911679 509.51726 
L 249.827831 464.950616 
L 315.743983 420.383972 
L 381.660135 375.817329 
L 447.576287 331.250685 
L 513.492439 286.684041 
L 579.408591 242.117397 
L 645.324743 197.550753 
" clip-path="url(#p136e154c29)" style="fill: none; stroke-dasharray: 5.55,2.4; stroke-dashoffset: 0; stroke: #008000; stroke-opacity: 0.7; stroke-width: 1.5"/>
   </g>
   <g id="line2d_41">
    <defs>
     <path id="m4e5e56c729" d="M 0 3 
C 0.795609 3 1.55874 2.683901 2.12132 2.12132 
C 2.683901 1.55874 3 0.795609 3 0 
C 3 -0.795609 2.683901 -1.55874 2.12132 -2.12132 
C 1.55874 -2.683901 0.795609 -3 0 -3 
C -0.795609 -3 -1.55874 -2.683901 -2.12132 -2.12132 
C -2.683901 -1.55874 -3 -0.795609 -3 0 
C -3 0.795609 -2.683901 1.55874 -2.12132 2.12132 
C -1.55874 2.683901 -0.795609 3 0 3 
z
" style="stroke: #800080"/>
    </defs>
    <g clip-path="url(#p136e154c29)">
     <use xlink:href="#m4e5e56c729" x="299.264945" y="437.096464" style="fill: #800080; stroke: #800080"/>
    </g>
   </g>
   <g id="line2d_42">
    <path d="M 52.079375 576.367226 
L 117.995527 539.228356 
L 183.911679 502.089486 
L 249.827831 464.950616 
L 315.743983 427.811746 
L 381.660135 390.672877 
L 447.576287 353.534007 
L 513.492439 316.395137 
L 579.408591 279.256267 
L 645.324743 242.117397 
" clip-path="url(#p136e154c29)" style="fill: none; stroke-dasharray: 5.55,2.4; stroke-dashoffset: 0; stroke: #800080; stroke-opacity: 0.7; stroke-width: 1.5"/>
   </g>
   <g id="line2d_43">
    <path d="M 52.079375 554.083904 
L 58.071752 551.382895 
L 64.06413 548.681886 
L 70.056507 545.980878 
L 76.048885 543.279869 
L 82.041262 540.57886 
L 88.03364 537.877852 
L 94.026017 535.176843 
L 100.018395 532.475834 
L 106.010772 529.774825 
L 112.00315 527.073817 
L 117.995527 524.372808 
L 123.987904 521.671799 
L 129.980282 518.970791 
L 135.972659 516.269782 
L 141.965037 513.568773 
L 147.957414 510.867764 
L 153.949792 508.166756 
L 159.942169 505.465747 
L 165.934547 502.764738 
L 171.926924 500.063729 
L 177.919302 497.362721 
L 183.911679 494.661712 
L 189.904056 491.960703 
L 195.896434 489.259695 
L 201.888811 486.558686 
L 207.881189 483.857677 
L 213.873566 481.156668 
L 219.865944 478.45566 
L 225.858321 475.754651 
L 231.850699 473.053642 
L 237.843076 470.352634 
L 243.835454 467.651625 
L 249.827831 464.950616 
L 255.820209 462.249607 
L 261.812586 459.548599 
L 267.804963 456.84759 
L 273.797341 454.146581 
L 279.789718 451.445573 
L 285.782096 448.744564 
L 291.774473 446.043555 
L 297.766851 443.342546 
L 303.759228 440.641538 
L 309.751606 437.940529 
L 315.743983 435.23952 
L 321.736361 432.538512 
L 327.728738 429.837503 
L 333.721115 427.136494 
L 339.713493 424.435485 
L 345.70587 421.734477 
L 351.698248 419.033468 
L 357.690625 416.332459 
L 363.683003 413.631451 
L 369.67538 410.930442 
L 375.667758 408.229433 
L 381.660135 405.528424 
L 387.652513 402.827416 
L 393.64489 400.126407 
L 399.637267 397.425398 
L 405.629645 394.72439 
L 411.622022 392.023381 
L 417.6144 389.322372 
L 423.606777 386.621363 
L 429.599155 383.920355 
L 435.591532 381.219346 
L 441.58391 378.518337 
L 447.576287 375.817329 
L 453.568665 373.11632 
L 459.561042 370.415311 
L 465.553419 367.714302 
L 471.545797 365.013294 
L 477.538174 362.312285 
L 483.530552 359.611276 
L 489.522929 356.910268 
L 495.515307 354.209259 
L 501.507684 351.50825 
L 507.500062 348.807241 
L 513.492439 346.106233 
L 519.484817 343.405224 
L 525.477194 340.704215 
L 531.469571 338.003207 
L 537.461949 335.302198 
L 543.454326 332.601189 
L 549.446704 329.90018 
L 555.439081 327.199172 
L 561.431459 324.498163 
L 567.423836 321.797154 
L 573.416214 319.096146 
L 579.408591 316.395137 
L 585.400969 313.694128 
L 591.393346 310.993119 
L 597.385724 308.292111 
L 603.378101 305.591102 
L 609.370478 302.890093 
L 615.362856 300.189085 
L 621.355233 297.488076 
L 627.347611 294.787067 
L 633.339988 292.086058 
L 639.332366 289.38505 
L 645.324743 286.684041 
" clip-path="url(#p136e154c29)" style="fill: none; stroke: #000000; stroke-width: 2; stroke-linecap: square"/>
   </g>
   <g id="patch_3">
    <path d="M 52.079375 509.51726 
L 52.079375 41.5675 
" style="fill: none; stroke: #000000; stroke-width: 0.8; stroke-linejoin: miter; stroke-linecap: square"/>
   </g>
   <g id="patch_4">
    <path d="M 645.324743 509.51726 
L 645.324743 41.5675 
" style="fill: none; stroke: #000000; stroke-width: 0.8; stroke-linejoin: miter; stroke-linecap: square"/>
   </g>
   <g id="patch_5">
    <path d="M 52.079375 509.51726 
L 645.324743 509.51726 
" style="fill: none; stroke: #000000; stroke-width: 0.8; stroke-linejoin: miter; stroke-linecap: square"/>
   </g>
   <g id="patch_6">
    <path d="M 52.079375 41.5675 
L 645.324743 41.5675 
" style="fill: none; stroke: #000000; stroke-width: 0.8; stroke-linejoin: miter; stroke-linecap: square"/>
   </g>
   <g id="text_19">
    <!-- Limit Definition of the Derivative -->
    <g transform="translate(234.22909 17.837812) scale(0.14 -0.14)">
     <defs>
      <path id="DejaVuSans-4c" d="M 628 4666 
L 1259 4666 
L 1259 531 
L 3531 531 
L 3531 0 
L 628 0 
L 628 4666 
z
" transform="scale(0.015625)"/>
      <path id="DejaVuSans-69" d="M 603 3500 
L 1178 3500 
L 1178 0 
L 603 0 
L 603 3500 
z
M 603 4863 
L 1178 4863 
L 1178 4134 
L 603 4134 
L 603 4863 
z
" transform="scale(0.015625)"/>
      <path id="DejaVuSans-6d" d="M 3328 2828 
Q 3544 3216 3844 3400 
Q 4144 3584 4550 3584 
Q 5097 3584 5394 3201 
Q 5691 2819 5691 2113 
L 5691 0 
L 5113 0 
L 5113 2094 
Q 5113 2597 4934 2840 
Q 4756 3084 4391 3084 
Q 3944 3084 3684 2787 
Q 3425 2491 3425 1978 
L 3425 0 
L 2847 0 
L 2847 2094 
Q 2847 2600 2669 2842 
Q 2491 3084 2119 3084 
Q 1678 3084 1418 2786 
Q 1159 2488 1159 1978 
L 1159 0 
L 581 0 
L 581 3500 
L 1159 3500 
L 1159 2956 
Q 1356 3278 1631 3431 
Q 1906 3584 2284 3584 
Q 2666 3584 2933 3390 
Q 3200 3197 3328 2828 
z
" transform="scale(0.015625)"/>
      <path id="DejaVuSans-74" d="M 1172 4494 
L 1172 3500 
L 2356 3500 
L 2356 3053 
L 1172 3053 
L 1172 1153 
Q 1172 725 1289 603 
Q 1406 481 1766 481 
L 2356 481 
L 2356 0 
L 1766 0 
Q 1100 0 847 248 
Q 594 497 594 1153 
L 594 3053 
L 172 3053 
L 172 3500 
L 594 3500 
L 594 4494 
L 1172 4494 
z
" transform="scale(0.015625)"/>
      <path id="DejaVuSans-20" transform="scale(0.015625)"/>
      <path id="DejaVuSans-44" d="M 1259 4147 
L 1259 519 
L 2022 519 
Q 2988 519 3436 956 
Q 3884 1394 3884 2338 
Q 3884 3275 3436 3711 
Q 2988 4147 2022 4147 
L 1259 4147 
z
M 628 4666 
L 1925 4666 
Q 3281 4666 3915 4102 
Q 4550 3538 4550 2338 
Q 4550 1131 3912 565 
Q 3275 0 1925 0 
L 628 0 
L 628 4666 
z
" transform="scale(0.015625)"/>
      <path id="DejaVuSans-65" d="M 3597 1894 
L 3597 1613 
L 953 1613 
Q 991 1019 1311 708 
Q 1631 397 2203 397 
Q 2534 397 2845 478 
Q 3156 559 3463 722 
L 3463 178 
Q 3153 47 2828 -22 
Q 2503 -91 2169 -91 
Q 1331 -91 842 396 
Q 353 884 353 1716 
Q 353 2575 817 3079 
Q 1281 3584 2069 3584 
Q 2775 3584 3186 3129 
Q 3597 2675 3597 1894 
z
M 3022 2063 
Q 3016 2534 2758 2815 
Q 2500 3097 2075 3097 
Q 1594 3097 1305 2825 
Q 1016 2553 972 2059 
L 3022 2063 
z
" transform="scale(0.015625)"/>
      <path id="DejaVuSans-66" d="M 2375 4863 
L 2375 4384 
L 1825 4384 
Q 1516 4384 1395 4259 
Q 1275 4134 1275 3809 
L 1275 3500 
L 2222 3500 
L 2222 3053 
L 1275 3053 
L 1275 0 
L 697 0 
L 697 3053 
L 147 3053 
L 147 3500 
L 697 3500 
L 697 3744 
Q 697 4328 969 4595 
Q 1241 4863 1831 4863 
L 2375 4863 
z
" transform="scale(0.015625)"/>
      <path id="DejaVuSans-6e" d="M 3513 2113 
L 3513 0 
L 2938 0 
L 2938 2094 
Q 2938 2591 2744 2837 
Q 2550 3084 2163 3084 
Q 1697 3084 1428 2787 
Q 1159 2491 1159 1978 
L 1159 0 
L 581 0 
L 581 3500 
L 1159 3500 
L 1159 2956 
Q 1366 3272 1645 3428 
Q 1925 3584 2291 3584 
Q 2894 3584 3203 3211 
Q 3513 2838 3513 2113 
z
" transform="scale(0.015625)"/>
      <path id="DejaVuSans-6f" d="M 1959 3097 
Q 1497 3097 1228 2736 
Q 959 2375 959 1747 
Q 959 1119 1226 758 
Q 1494 397 1959 397 
Q 2419 397 2687 759 
Q 2956 1122 2956 1747 
Q 2956 2369 2687 2733 
Q 2419 3097 1959 3097 
z
M 1959 3584 
Q 2709 3584 3137 3096 
Q 3566 2609 3566 1747 
Q 3566 888 3137 398 
Q 2709 -91 1959 -91 
Q 1206 -91 779 398 
Q 353 888 353 1747 
Q 353 2609 779 3096 
Q 1206 3584 1959 3584 
z
" transform="scale(0.015625)"/>
      <path id="DejaVuSans-68" d="M 3513 2113 
L 3513 0 
L 2938 0 
L 2938 2094 
Q 2938 2591 2744 2837 
Q 2550 3084 2163 3084 
Q 1697 3084 1428 2787 
Q 1159 2491 1159 1978 
L 1159 0 
L 581 0 
L 581 4863 
L 1159 4863 
L 1159 2956 
Q 1366 3272 1645 3428 
Q 1925 3584 2291 3584 
Q 2894 3584 3203 3211 
Q 3513 2838 3513 2113 
z
" transform="scale(0.015625)"/>
      <path id="DejaVuSans-72" d="M 2631 2963 
Q 2534 3019 2420 3045 
Q 2306 3072 2169 3072 
Q 1681 3072 1420 2755 
Q 1159 2438 1159 1844 
L 1159 0 
L 581 0 
L 581 3500 
L 1159 3500 
L 1159 2956 
Q 1341 3275 1631 3429 
Q 1922 3584 2338 3584 
Q 2397 3584 2469 3576 
Q 2541 3569 2628 3553 
L 2631 2963 
z
" transform="scale(0.015625)"/>
      <path id="DejaVuSans-76" d="M 191 3500 
L 800 3500 
L 1894 563 
L 2988 3500 
L 3597 3500 
L 2284 0 
L 1503 0 
L 191 3500 
z
" transform="scale(0.015625)"/>
      <path id="DejaVuSans-61" d="M 2194 1759 
Q 1497 1759 1228 1600 
Q 959 1441 959 1056 
Q 959 750 1161 570 
Q 1363 391 1709 391 
Q 2188 391 2477 730 
Q 2766 1069 2766 1631 
L 2766 1759 
L 2194 1759 
z
M 3341 1997 
L 3341 0 
L 2766 0 
L 2766 531 
Q 2569 213 2275 61 
Q 1981 -91 1556 -91 
Q 1019 -91 701 211 
Q 384 513 384 1019 
Q 384 1609 779 1909 
Q 1175 2209 1959 2209 
L 2766 2209 
L 2766 2266 
Q 2766 2663 2505 2880 
Q 2244 3097 1772 3097 
Q 1472 3097 1187 3025 
Q 903 2953 641 2809 
L 641 3341 
Q 956 3463 1253 3523 
Q 1550 3584 1831 3584 
Q 2591 3584 2966 3190 
Q 3341 2797 3341 1997 
z
" transform="scale(0.015625)"/>
     </defs>
     <use xlink:href="#DejaVuSans-4c"/>
     <use xlink:href="#DejaVuSans-69" transform="translate(55.712891 0)"/>
     <use xlink:href="#DejaVuSans-6d" transform="translate(83.496094 0)"/>
     <use xlink:href="#DejaVuSans-69" transform="translate(180.908203 0)"/>
     <use xlink:href="#DejaVuSans-74" transform="translate(208.691406 0)"/>
     <use xlink:href="#DejaVuSans-20" transform="translate(247.900391 0)"/>
     <use xlink:href="#DejaVuSans-44" transform="translate(279.6875 0)"/>
     <use xlink:href="#DejaVuSans-65" transform="translate(356.689453 0)"/>
     <use xlink:href="#DejaVuSans-66" transform="translate(418.212891 0)"/>
     <use xlink:href="#DejaVuSans-69" transform="translate(453.417969 0)"/>
     <use xlink:href="#DejaVuSans-6e" transform="translate(481.201172 0)"/>
     <use xlink:href="#DejaVuSans-69" transform="translate(544.580078 0)"/>
     <use xlink:href="#DejaVuSans-74" transform="translate(572.363281 0)"/>
     <use xlink:href="#DejaVuSans-69" transform="translate(611.572266 0)"/>
     <use xlink:href="#DejaVuSans-6f" transform="translate(639.355469 0)"/>
     <use xlink:href="#DejaVuSans-6e" transform="translate(700.537109 0)"/>
     <use xlink:href="#DejaVuSans-20" transform="translate(763.916016 0)"/>
     <use xlink:href="#DejaVuSans-6f" transform="translate(795.703125 0)"/>
     <use xlink:href="#DejaVuSans-66" transform="translate(856.884766 0)"/>
     <use xlink:href="#DejaVuSans-20" transform="translate(892.089844 0)"/>
     <use xlink:href="#DejaVuSans-74" transform="translate(923.876953 0)"/>
     <use xlink:href="#DejaVuSans-68" transform="translate(963.085938 0)"/>
     <use xlink:href="#DejaVuSans-65" transform="translate(1026.464844 0)"/>
     <use xlink:href="#DejaVuSans-20" transform="translate(1087.988281 0)"/>
     <use xlink:href="#DejaVuSans-44" transform="translate(1119.775391 0)"/>
     <use xlink:href="#DejaVuSans-65" transform="translate(1196.777344 0)"/>
     <use xlink:href="#DejaVuSans-72" transform="translate(1258.300781 0)"/>
     <use xlink:href="#DejaVuSans-69" transform="translate(1299.414062 0)"/>
     <use xlink:href="#DejaVuSans-76" transform="translate(1327.197266 0)"/>
     <use xlink:href="#DejaVuSans-61" transform="translate(1386.376953 0)"/>
     <use xlink:href="#DejaVuSans-74" transform="translate(1447.65625 0)"/>
     <use xlink:href="#DejaVuSans-69" transform="translate(1486.865234 0)"/>
     <use xlink:href="#DejaVuSans-76" transform="translate(1514.648438 0)"/>
     <use xlink:href="#DejaVuSans-65" transform="translate(1573.828125 0)"/>
    </g>
    <!-- $f(x) = x^2$, $x_0 = 1$ -->
    <g transform="translate(295.292059 35.5675) scale(0.14 -0.14)">
     <defs>
      <path id="DejaVuSans-Oblique-66" d="M 3059 4863 
L 2969 4384 
L 2419 4384 
Q 2106 4384 1964 4261 
Q 1822 4138 1753 3809 
L 1691 3500 
L 2638 3500 
L 2553 3053 
L 1606 3053 
L 1013 0 
L 434 0 
L 1031 3053 
L 481 3053 
L 563 3500 
L 1113 3500 
L 1159 3744 
Q 1278 4363 1576 4613 
Q 1875 4863 2516 4863 
L 3059 4863 
z
" transform="scale(0.015625)"/>
      <path id="DejaVuSans-28" d="M 1984 4856 
Q 1566 4138 1362 3434 
Q 1159 2731 1159 2009 
Q 1159 1288 1364 580 
Q 1569 -128 1984 -844 
L 1484 -844 
Q 1016 -109 783 600 
Q 550 1309 550 2009 
Q 550 2706 781 3412 
Q 1013 4119 1484 4856 
L 1984 4856 
z
" transform="scale(0.015625)"/>
      <path id="DejaVuSans-Oblique-78" d="M 3841 3500 
L 2234 1784 
L 3219 0 
L 2559 0 
L 1819 1388 
L 531 0 
L -166 0 
L 1556 1844 
L 641 3500 
L 1300 3500 
L 1972 2234 
L 3144 3500 
L 3841 3500 
z
" transform="scale(0.015625)"/>
      <path id="DejaVuSans-29" d="M 513 4856 
L 1013 4856 
Q 1481 4119 1714 3412 
Q 1947 2706 1947 2009 
Q 1947 1309 1714 600 
Q 1481 -109 1013 -844 
L 513 -844 
Q 928 -128 1133 580 
Q 1338 1288 1338 2009 
Q 1338 2731 1133 3434 
Q 928 4138 513 4856 
z
" transform="scale(0.015625)"/>
      <path id="DejaVuSans-3d" d="M 678 2906 
L 4684 2906 
L 4684 2381 
L 678 2381 
L 678 2906 
z
M 678 1631 
L 4684 1631 
L 4684 1100 
L 678 1100 
L 678 1631 
z
" transform="scale(0.015625)"/>
      <path id="DejaVuSans-2c" d="M 750 794 
L 1409 794 
L 1409 256 
L 897 -744 
L 494 -744 
L 750 256 
L 750 794 
z
" transform="scale(0.015625)"/>
     </defs>
     <use xlink:href="#DejaVuSans-Oblique-66" transform="translate(0 0.765625)"/>
     <use xlink:href="#DejaVuSans-28" transform="translate(35.205078 0.765625)"/>
     <use xlink:href="#DejaVuSans-Oblique-78" transform="translate(74.21875 0.765625)"/>
     <use xlink:href="#DejaVuSans-29" transform="translate(133.398438 0.765625)"/>
     <use xlink:href="#DejaVuSans-3d" transform="translate(191.894531 0.765625)"/>
     <use xlink:href="#DejaVuSans-Oblique-78" transform="translate(295.166016 0.765625)"/>
     <use xlink:href="#DejaVuSans-32" transform="translate(358.811849 39.046875) scale(0.7)"/>
     <use xlink:href="#DejaVuSans-2c" transform="translate(406.082357 0.765625)"/>
     <use xlink:href="#DejaVuSans-20" transform="translate(437.869466 0.765625)"/>
     <use xlink:href="#DejaVuSans-Oblique-78" transform="translate(469.656576 0.765625)"/>
     <use xlink:href="#DejaVuSans-30" transform="translate(528.836263 -15.640625) scale(0.7)"/>
     <use xlink:href="#DejaVuSans-3d" transform="translate(595.589193 0.765625)"/>
     <use xlink:href="#DejaVuSans-31" transform="translate(698.860677 0.765625)"/>
    </g>
   </g>
   <g id="legend_1">
    <g id="patch_7">
     <path d="M 21.027059 601.809491 
L 680.377059 601.809491 
Q 682.377059 601.809491 682.377059 599.809491 
L 682.377059 555.953241 
Q 682.377059 553.953241 680.377059 553.953241 
L 21.027059 553.953241 
Q 19.027059 553.953241 19.027059 555.953241 
L 19.027059 599.809491 
Q 19.027059 601.809491 21.027059 601.809491 
z
" style="fill: #4d4d4d; opacity: 0.5; stroke: #4d4d4d; stroke-linejoin: miter"/>
    </g>
    <g id="patch_8">
     <path d="M 19.027059 599.809491 
L 678.377059 599.809491 
Q 680.377059 599.809491 680.377059 597.809491 
L 680.377059 553.953241 
Q 680.377059 551.953241 678.377059 551.953241 
L 19.027059 551.953241 
Q 17.027059 551.953241 17.027059 553.953241 
L 17.027059 597.809491 
Q 17.027059 599.809491 19.027059 599.809491 
z
" style="fill: #ffffff; stroke: #cccccc; stroke-linejoin: miter"/>
    </g>
    <g id="line2d_44">
     <path d="M 21.027059 560.873553 
L 31.027059 560.873553 
L 41.027059 560.873553 
" style="fill: none; stroke: #0000ff; stroke-width: 2; stroke-linecap: square"/>
    </g>
    <g id="text_20">
     <!-- $f(x) = x^2$ -->
     <g transform="translate(49.027059 564.373553) scale(0.1 -0.1)">
      <use xlink:href="#DejaVuSans-Oblique-66" transform="translate(0 0.765625)"/>
      <use xlink:href="#DejaVuSans-28" transform="translate(35.205078 0.765625)"/>
      <use xlink:href="#DejaVuSans-Oblique-78" transform="translate(74.21875 0.765625)"/>
      <use xlink:href="#DejaVuSans-29" transform="translate(133.398438 0.765625)"/>
      <use xlink:href="#DejaVuSans-3d" transform="translate(191.894531 0.765625)"/>
      <use xlink:href="#DejaVuSans-Oblique-78" transform="translate(295.166016 0.765625)"/>
      <use xlink:href="#DejaVuSans-32" transform="translate(358.811849 39.046875) scale(0.7)"/>
     </g>
    </g>
    <g id="line2d_45">
     <g>
      <use xlink:href="#m69eba36c11" x="31.027059" y="575.551678" style="stroke: #000000"/>
     </g>
    </g>
    <g id="text_21">
     <!-- $(x_0, f(x_0))$ -->
     <g transform="translate(49.027059 579.051678) scale(0.1 -0.1)">
      <use xlink:href="#DejaVuSans-28" transform="translate(0 0.015625)"/>
      <use xlink:href="#DejaVuSans-Oblique-78" transform="translate(39.013672 0.015625)"/>
      <use xlink:href="#DejaVuSans-30" transform="translate(98.193359 -16.390625) scale(0.7)"/>
      <use xlink:href="#DejaVuSans-2c" transform="translate(145.463867 0.015625)"/>
      <use xlink:href="#DejaVuSans-Oblique-66" transform="translate(196.733398 0.015625)"/>
      <use xlink:href="#DejaVuSans-28" transform="translate(231.938477 0.015625)"/>
      <use xlink:href="#DejaVuSans-Oblique-78" transform="translate(270.952148 0.015625)"/>
      <use xlink:href="#DejaVuSans-30" transform="translate(330.131836 -16.390625) scale(0.7)"/>
      <use xlink:href="#DejaVuSans-29" transform="translate(377.402344 0.015625)"/>
      <use xlink:href="#DejaVuSans-29" transform="translate(416.416016 0.015625)"/>
     </g>
    </g>
    <g id="line2d_46">
     <g>
      <use xlink:href="#m0d4f87bab2" x="31.027059" y="590.229803" style="fill: #ff0000; stroke: #ff0000"/>
     </g>
    </g>
    <g id="text_22">
     <!-- $(x_{1}, f(x_{1}))$ -->
     <g transform="translate(49.027059 593.729803) scale(0.1 -0.1)">
      <use xlink:href="#DejaVuSans-28" transform="translate(0 0.015625)"/>
      <use xlink:href="#DejaVuSans-Oblique-78" transform="translate(39.013672 0.015625)"/>
      <use xlink:href="#DejaVuSans-31" transform="translate(98.193359 -16.390625) scale(0.7)"/>
      <use xlink:href="#DejaVuSans-2c" transform="translate(145.463867 0.015625)"/>
      <use xlink:href="#DejaVuSans-Oblique-66" transform="translate(196.733398 0.015625)"/>
      <use xlink:href="#DejaVuSans-28" transform="translate(231.938477 0.015625)"/>
      <use xlink:href="#DejaVuSans-Oblique-78" transform="translate(270.952148 0.015625)"/>
      <use xlink:href="#DejaVuSans-31" transform="translate(330.131836 -16.390625) scale(0.7)"/>
      <use xlink:href="#DejaVuSans-29" transform="translate(377.402344 0.015625)"/>
      <use xlink:href="#DejaVuSans-29" transform="translate(416.416016 0.015625)"/>
     </g>
    </g>
    <g id="line2d_47">
     <path d="M 114.627059 560.873553 
L 124.627059 560.873553 
L 134.627059 560.873553 
" style="fill: none; stroke-dasharray: 5.55,2.4; stroke-dashoffset: 0; stroke: #ff0000; stroke-opacity: 0.7; stroke-width: 1.5"/>
    </g>
    <g id="text_23">
     <!-- Secant line to x=3 -->
     <g transform="translate(142.627059 564.373553) scale(0.1 -0.1)">
      <defs>
       <path id="DejaVuSans-53" d="M 3425 4513 
L 3425 3897 
Q 3066 4069 2747 4153 
Q 2428 4238 2131 4238 
Q 1616 4238 1336 4038 
Q 1056 3838 1056 3469 
Q 1056 3159 1242 3001 
Q 1428 2844 1947 2747 
L 2328 2669 
Q 3034 2534 3370 2195 
Q 3706 1856 3706 1288 
Q 3706 609 3251 259 
Q 2797 -91 1919 -91 
Q 1588 -91 1214 -16 
Q 841 59 441 206 
L 441 856 
Q 825 641 1194 531 
Q 1563 422 1919 422 
Q 2459 422 2753 634 
Q 3047 847 3047 1241 
Q 3047 1584 2836 1778 
Q 2625 1972 2144 2069 
L 1759 2144 
Q 1053 2284 737 2584 
Q 422 2884 422 3419 
Q 422 4038 858 4394 
Q 1294 4750 2059 4750 
Q 2388 4750 2728 4690 
Q 3069 4631 3425 4513 
z
" transform="scale(0.015625)"/>
       <path id="DejaVuSans-63" d="M 3122 3366 
L 3122 2828 
Q 2878 2963 2633 3030 
Q 2388 3097 2138 3097 
Q 1578 3097 1268 2742 
Q 959 2388 959 1747 
Q 959 1106 1268 751 
Q 1578 397 2138 397 
Q 2388 397 2633 464 
Q 2878 531 3122 666 
L 3122 134 
Q 2881 22 2623 -34 
Q 2366 -91 2075 -91 
Q 1284 -91 818 406 
Q 353 903 353 1747 
Q 353 2603 823 3093 
Q 1294 3584 2113 3584 
Q 2378 3584 2631 3529 
Q 2884 3475 3122 3366 
z
" transform="scale(0.015625)"/>
       <path id="DejaVuSans-6c" d="M 603 4863 
L 1178 4863 
L 1178 0 
L 603 0 
L 603 4863 
z
" transform="scale(0.015625)"/>
      </defs>
      <use xlink:href="#DejaVuSans-53"/>
      <use xlink:href="#DejaVuSans-65" transform="translate(63.476562 0)"/>
      <use xlink:href="#DejaVuSans-63" transform="translate(125 0)"/>
      <use xlink:href="#DejaVuSans-61" transform="translate(179.980469 0)"/>
      <use xlink:href="#DejaVuSans-6e" transform="translate(241.259766 0)"/>
      <use xlink:href="#DejaVuSans-74" transform="translate(304.638672 0)"/>
      <use xlink:href="#DejaVuSans-20" transform="translate(343.847656 0)"/>
      <use xlink:href="#DejaVuSans-6c" transform="translate(375.634766 0)"/>
      <use xlink:href="#DejaVuSans-69" transform="translate(403.417969 0)"/>
      <use xlink:href="#DejaVuSans-6e" transform="translate(431.201172 0)"/>
      <use xlink:href="#DejaVuSans-65" transform="translate(494.580078 0)"/>
      <use xlink:href="#DejaVuSans-20" transform="translate(556.103516 0)"/>
      <use xlink:href="#DejaVuSans-74" transform="translate(587.890625 0)"/>
      <use xlink:href="#DejaVuSans-6f" transform="translate(627.099609 0)"/>
      <use xlink:href="#DejaVuSans-20" transform="translate(688.28125 0)"/>
      <use xlink:href="#DejaVuSans-78" transform="translate(720.068359 0)"/>
      <use xlink:href="#DejaVuSans-3d" transform="translate(779.248047 0)"/>
      <use xlink:href="#DejaVuSans-33" transform="translate(863.037109 0)"/>
     </g>
    </g>
    <g id="line2d_48">
     <g>
      <use xlink:href="#ma227bae55c" x="124.627059" y="575.551678" style="fill: #ffa500; stroke: #ffa500"/>
     </g>
    </g>
    <g id="text_24">
     <!-- $(x_{2}, f(x_{2}))$ -->
     <g transform="translate(142.627059 579.051678) scale(0.1 -0.1)">
      <use xlink:href="#DejaVuSans-28" transform="translate(0 0.015625)"/>
      <use xlink:href="#DejaVuSans-Oblique-78" transform="translate(39.013672 0.015625)"/>
      <use xlink:href="#DejaVuSans-32" transform="translate(98.193359 -16.390625) scale(0.7)"/>
      <use xlink:href="#DejaVuSans-2c" transform="translate(145.463867 0.015625)"/>
      <use xlink:href="#DejaVuSans-Oblique-66" transform="translate(196.733398 0.015625)"/>
      <use xlink:href="#DejaVuSans-28" transform="translate(231.938477 0.015625)"/>
      <use xlink:href="#DejaVuSans-Oblique-78" transform="translate(270.952148 0.015625)"/>
      <use xlink:href="#DejaVuSans-32" transform="translate(330.131836 -16.390625) scale(0.7)"/>
      <use xlink:href="#DejaVuSans-29" transform="translate(377.402344 0.015625)"/>
      <use xlink:href="#DejaVuSans-29" transform="translate(416.416016 0.015625)"/>
     </g>
    </g>
    <g id="line2d_49">
     <path d="M 255.294247 560.873553 
L 265.294247 560.873553 
L 275.294247 560.873553 
" style="fill: none; stroke-dasharray: 5.55,2.4; stroke-dashoffset: 0; stroke: #ffa500; stroke-opacity: 0.7; stroke-width: 1.5"/>
    </g>
    <g id="text_25">
     <!-- Secant line to x=2.5 -->
     <g transform="translate(283.294247 564.373553) scale(0.1 -0.1)">
      <use xlink:href="#DejaVuSans-53"/>
      <use xlink:href="#DejaVuSans-65" transform="translate(63.476562 0)"/>
      <use xlink:href="#DejaVuSans-63" transform="translate(125 0)"/>
      <use xlink:href="#DejaVuSans-61" transform="translate(179.980469 0)"/>
      <use xlink:href="#DejaVuSans-6e" transform="translate(241.259766 0)"/>
      <use xlink:href="#DejaVuSans-74" transform="translate(304.638672 0)"/>
      <use xlink:href="#DejaVuSans-20" transform="translate(343.847656 0)"/>
      <use xlink:href="#DejaVuSans-6c" transform="translate(375.634766 0)"/>
      <use xlink:href="#DejaVuSans-69" transform="translate(403.417969 0)"/>
      <use xlink:href="#DejaVuSans-6e" transform="translate(431.201172 0)"/>
      <use xlink:href="#DejaVuSans-65" transform="translate(494.580078 0)"/>
      <use xlink:href="#DejaVuSans-20" transform="translate(556.103516 0)"/>
      <use xlink:href="#DejaVuSans-74" transform="translate(587.890625 0)"/>
      <use xlink:href="#DejaVuSans-6f" transform="translate(627.099609 0)"/>
      <use xlink:href="#DejaVuSans-20" transform="translate(688.28125 0)"/>
      <use xlink:href="#DejaVuSans-78" transform="translate(720.068359 0)"/>
      <use xlink:href="#DejaVuSans-3d" transform="translate(779.248047 0)"/>
      <use xlink:href="#DejaVuSans-32" transform="translate(863.037109 0)"/>
      <use xlink:href="#DejaVuSans-2e" transform="translate(926.660156 0)"/>
      <use xlink:href="#DejaVuSans-35" transform="translate(958.447266 0)"/>
     </g>
    </g>
    <g id="line2d_50">
     <g>
      <use xlink:href="#ma36544c654" x="265.294247" y="575.551678" style="fill: #008000; stroke: #008000"/>
     </g>
    </g>
    <g id="text_26">
     <!-- $(x_{3}, f(x_{3}))$ -->
     <g transform="translate(283.294247 579.051678) scale(0.1 -0.1)">
      <use xlink:href="#DejaVuSans-28" transform="translate(0 0.015625)"/>
      <use xlink:href="#DejaVuSans-Oblique-78" transform="translate(39.013672 0.015625)"/>
      <use xlink:href="#DejaVuSans-33" transform="translate(98.193359 -16.390625) scale(0.7)"/>
      <use xlink:href="#DejaVuSans-2c" transform="translate(145.463867 0.015625)"/>
      <use xlink:href="#DejaVuSans-Oblique-66" transform="translate(196.733398 0.015625)"/>
      <use xlink:href="#DejaVuSans-28" transform="translate(231.938477 0.015625)"/>
      <use xlink:href="#DejaVuSans-Oblique-78" transform="translate(270.952148 0.015625)"/>
      <use xlink:href="#DejaVuSans-33" transform="translate(330.131836 -16.390625) scale(0.7)"/>
      <use xlink:href="#DejaVuSans-29" transform="translate(377.402344 0.015625)"/>
      <use xlink:href="#DejaVuSans-29" transform="translate(416.416016 0.015625)"/>
     </g>
    </g>
    <g id="line2d_51">
     <path d="M 405.502059 560.873553 
L 415.502059 560.873553 
L 425.502059 560.873553 
" style="fill: none; stroke-dasharray: 5.55,2.4; stroke-dashoffset: 0; stroke: #008000; stroke-opacity: 0.7; stroke-width: 1.5"/>
    </g>
    <g id="text_27">
     <!-- Secant line to x=2 -->
     <g transform="translate(433.502059 564.373553) scale(0.1 -0.1)">
      <use xlink:href="#DejaVuSans-53"/>
      <use xlink:href="#DejaVuSans-65" transform="translate(63.476562 0)"/>
      <use xlink:href="#DejaVuSans-63" transform="translate(125 0)"/>
      <use xlink:href="#DejaVuSans-61" transform="translate(179.980469 0)"/>
      <use xlink:href="#DejaVuSans-6e" transform="translate(241.259766 0)"/>
      <use xlink:href="#DejaVuSans-74" transform="translate(304.638672 0)"/>
      <use xlink:href="#DejaVuSans-20" transform="translate(343.847656 0)"/>
      <use xlink:href="#DejaVuSans-6c" transform="translate(375.634766 0)"/>
      <use xlink:href="#DejaVuSans-69" transform="translate(403.417969 0)"/>
      <use xlink:href="#DejaVuSans-6e" transform="translate(431.201172 0)"/>
      <use xlink:href="#DejaVuSans-65" transform="translate(494.580078 0)"/>
      <use xlink:href="#DejaVuSans-20" transform="translate(556.103516 0)"/>
      <use xlink:href="#DejaVuSans-74" transform="translate(587.890625 0)"/>
      <use xlink:href="#DejaVuSans-6f" transform="translate(627.099609 0)"/>
      <use xlink:href="#DejaVuSans-20" transform="translate(688.28125 0)"/>
      <use xlink:href="#DejaVuSans-78" transform="translate(720.068359 0)"/>
      <use xlink:href="#DejaVuSans-3d" transform="translate(779.248047 0)"/>
      <use xlink:href="#DejaVuSans-32" transform="translate(863.037109 0)"/>
     </g>
    </g>
    <g id="line2d_52">
     <g>
      <use xlink:href="#m4e5e56c729" x="415.502059" y="575.551678" style="fill: #800080; stroke: #800080"/>
     </g>
    </g>
    <g id="text_28">
     <!-- $(x_{4}, f(x_{4}))$ -->
     <g transform="translate(433.502059 579.051678) scale(0.1 -0.1)">
      <use xlink:href="#DejaVuSans-28" transform="translate(0 0.015625)"/>
      <use xlink:href="#DejaVuSans-Oblique-78" transform="translate(39.013672 0.015625)"/>
      <use xlink:href="#DejaVuSans-34" transform="translate(98.193359 -16.390625) scale(0.7)"/>
      <use xlink:href="#DejaVuSans-2c" transform="translate(145.463867 0.015625)"/>
      <use xlink:href="#DejaVuSans-Oblique-66" transform="translate(196.733398 0.015625)"/>
      <use xlink:href="#DejaVuSans-28" transform="translate(231.938477 0.015625)"/>
      <use xlink:href="#DejaVuSans-Oblique-78" transform="translate(270.952148 0.015625)"/>
      <use xlink:href="#DejaVuSans-34" transform="translate(330.131836 -16.390625) scale(0.7)"/>
      <use xlink:href="#DejaVuSans-29" transform="translate(377.402344 0.015625)"/>
      <use xlink:href="#DejaVuSans-29" transform="translate(416.416016 0.015625)"/>
     </g>
    </g>
    <g id="line2d_53">
     <path d="M 546.169247 560.873553 
L 556.169247 560.873553 
L 566.169247 560.873553 
" style="fill: none; stroke-dasharray: 5.55,2.4; stroke-dashoffset: 0; stroke: #800080; stroke-opacity: 0.7; stroke-width: 1.5"/>
    </g>
    <g id="text_29">
     <!-- Secant line to x=1.5 -->
     <g transform="translate(574.169247 564.373553) scale(0.1 -0.1)">
      <use xlink:href="#DejaVuSans-53"/>
      <use xlink:href="#DejaVuSans-65" transform="translate(63.476562 0)"/>
      <use xlink:href="#DejaVuSans-63" transform="translate(125 0)"/>
      <use xlink:href="#DejaVuSans-61" transform="translate(179.980469 0)"/>
      <use xlink:href="#DejaVuSans-6e" transform="translate(241.259766 0)"/>
      <use xlink:href="#DejaVuSans-74" transform="translate(304.638672 0)"/>
      <use xlink:href="#DejaVuSans-20" transform="translate(343.847656 0)"/>
      <use xlink:href="#DejaVuSans-6c" transform="translate(375.634766 0)"/>
      <use xlink:href="#DejaVuSans-69" transform="translate(403.417969 0)"/>
      <use xlink:href="#DejaVuSans-6e" transform="translate(431.201172 0)"/>
      <use xlink:href="#DejaVuSans-65" transform="translate(494.580078 0)"/>
      <use xlink:href="#DejaVuSans-20" transform="translate(556.103516 0)"/>
      <use xlink:href="#DejaVuSans-74" transform="translate(587.890625 0)"/>
      <use xlink:href="#DejaVuSans-6f" transform="translate(627.099609 0)"/>
      <use xlink:href="#DejaVuSans-20" transform="translate(688.28125 0)"/>
      <use xlink:href="#DejaVuSans-78" transform="translate(720.068359 0)"/>
      <use xlink:href="#DejaVuSans-3d" transform="translate(779.248047 0)"/>
      <use xlink:href="#DejaVuSans-31" transform="translate(863.037109 0)"/>
      <use xlink:href="#DejaVuSans-2e" transform="translate(926.660156 0)"/>
      <use xlink:href="#DejaVuSans-35" transform="translate(958.447266 0)"/>
     </g>
    </g>
    <g id="line2d_54">
     <path d="M 546.169247 575.551678 
L 556.169247 575.551678 
L 566.169247 575.551678 
" style="fill: none; stroke: #000000; stroke-width: 2; stroke-linecap: square"/>
    </g>
    <g id="text_30">
     <!-- Tangent line -->
     <g transform="translate(574.169247 579.051678) scale(0.1 -0.1)">
      <defs>
       <path id="DejaVuSans-54" d="M -19 4666 
L 3928 4666 
L 3928 4134 
L 2272 4134 
L 2272 0 
L 1638 0 
L 1638 4134 
L -19 4134 
L -19 4666 
z
" transform="scale(0.015625)"/>
       <path id="DejaVuSans-67" d="M 2906 1791 
Q 2906 2416 2648 2759 
Q 2391 3103 1925 3103 
Q 1463 3103 1205 2759 
Q 947 2416 947 1791 
Q 947 1169 1205 825 
Q 1463 481 1925 481 
Q 2391 481 2648 825 
Q 2906 1169 2906 1791 
z
M 3481 434 
Q 3481 -459 3084 -895 
Q 2688 -1331 1869 -1331 
Q 1566 -1331 1297 -1286 
Q 1028 -1241 775 -1147 
L 775 -588 
Q 1028 -725 1275 -790 
Q 1522 -856 1778 -856 
Q 2344 -856 2625 -561 
Q 2906 -266 2906 331 
L 2906 616 
Q 2728 306 2450 153 
Q 2172 0 1784 0 
Q 1141 0 747 490 
Q 353 981 353 1791 
Q 353 2603 747 3093 
Q 1141 3584 1784 3584 
Q 2172 3584 2450 3431 
Q 2728 3278 2906 2969 
L 2906 3500 
L 3481 3500 
L 3481 434 
z
" transform="scale(0.015625)"/>
      </defs>
      <use xlink:href="#DejaVuSans-54"/>
      <use xlink:href="#DejaVuSans-61" transform="translate(44.583984 0)"/>
      <use xlink:href="#DejaVuSans-6e" transform="translate(105.863281 0)"/>
      <use xlink:href="#DejaVuSans-67" transform="translate(169.242188 0)"/>
      <use xlink:href="#DejaVuSans-65" transform="translate(232.71875 0)"/>
      <use xlink:href="#DejaVuSans-6e" transform="translate(294.242188 0)"/>
      <use xlink:href="#DejaVuSans-74" transform="translate(357.621094 0)"/>
      <use xlink:href="#DejaVuSans-20" transform="translate(396.830078 0)"/>
      <use xlink:href="#DejaVuSans-6c" transform="translate(428.617188 0)"/>
      <use xlink:href="#DejaVuSans-69" transform="translate(456.400391 0)"/>
      <use xlink:href="#DejaVuSans-6e" transform="translate(484.183594 0)"/>
      <use xlink:href="#DejaVuSans-65" transform="translate(547.5625 0)"/>
     </g>
    </g>
   </g>
  </g>
 </g>
 <defs>
  <clipPath id="p136e154c29">
   <rect x="52.079375" y="41.5675" width="593.245368" height="467.94976"/>
  </clipPath>
 </defs>
</svg>
